<?xml version="1.0" encoding="utf-8"?>
<!-- Generator: Adobe Illustrator 25.3.1, SVG Export Plug-In . SVG Version: 6.00 Build 0)  -->
<svg version="1.1" id="Layer_1" xmlns="http://www.w3.org/2000/svg" xmlns:xlink="http://www.w3.org/1999/xlink" x="0px" y="0px"
	 viewBox="0 0 1920 1080" style="enable-background:new 0 0 1920 1080;" xml:space="preserve">
<style type="text/css">
	.st0{fill:#FFFFFF;}
</style>
<g>
	<g>
		<path class="st0" d="M840.3,517.3v62.4h-15v-85.7h15.4l43.8,60.8v-60.8h15v85.7H885L840.3,517.3z"/>
		<path class="st0" d="M957.7,492.7c25.7,0,43.8,18.8,43.8,44.3c0,25.6-18.1,44.3-43.8,44.3c-25.7,0-43.8-18.8-43.8-44.3
			C913.9,511.4,932,492.7,957.7,492.7z M957.7,506c-17.3,0-28.4,13.2-28.4,31c0,17.6,11,31,28.4,31c17.2,0,28.4-13.4,28.4-31
			C986.1,519.3,974.9,506,957.7,506z"/>
		<path class="st0" d="M1004.5,494.1h17.1l25.9,69.4l25.9-69.4h17.1l-33.7,85.7h-18.8L1004.5,494.1z"/>
		<path class="st0" d="M1147.8,563.3h-40.6l-6.3,16.4h-16.4l33.7-85.7h18.8l33.7,85.7h-16.4L1147.8,563.3z M1111.5,550.1h32.1
			l-16.1-43.3L1111.5,550.1z"/>
		<path class="st0" d="M828.1,690c5.9,6.3,15.2,11.8,27.1,11.8c12.3,0,17.2-6,17.2-11.7c0-7.7-9.1-10-19.5-12.7
			c-14-3.5-30.4-7.6-30.4-25.7c0-14.1,12.5-25,31.2-25c13.4,0,24.1,4.2,32.1,11.9l-8.6,11.2c-6.7-6.7-15.8-9.8-24.8-9.8
			c-8.9,0-14.5,4.2-14.5,10.7c0,6.7,8.7,8.9,18.9,11.4c14.1,3.6,31,8,31,26.6c0,14.3-10,26.5-33.1,26.5c-15.8,0-27.2-5.5-34.8-13.6
			L828.1,690z"/>
		<path class="st0" d="M901.6,628h37.6c18,0,28,12.3,28,26.8c0,14.5-10.1,26.8-28,26.8h-22.6v32h-15V628z M937.2,641.2h-20.5v27.2
			h20.5c8.5,0,14.6-5.4,14.6-13.6C951.8,646.6,945.7,641.2,937.2,641.2z"/>
		<path class="st0" d="M979.7,628h58.7v13.2h-43.7v22.2h42.8v13.2h-42.8v23.8h43.7v13.2h-58.7V628z"/>
		<path class="st0" d="M1076.3,677.6l-7.4,8.7v27.4h-15V628h15v40.8l33.5-40.8h18.6l-34.8,40.5l37.4,45.2H1105L1076.3,677.6z"/>
		<path class="st0" d="M1154,641.2H1128V628h66.9v13.2H1169v72.4h-15V641.2z"/>
		<path class="st0" d="M1237.6,681.7h-14.9v32h-15V628h37.6c17,0,28,11,28,26.8c0,15.3-10,23.5-20.3,25.2l20.9,33.6h-17.3
			L1237.6,681.7z M1243.2,641.2h-20.5v27.2h20.5c8.5,0,14.6-5.4,14.6-13.6C1257.9,646.6,1251.7,641.2,1243.2,641.2z"/>
		<path class="st0" d="M1288.3,628h15.2v51.4c0,13.6,7.6,22.5,22,22.5c14.3,0,21.8-8.9,21.8-22.5V628h15.2v51.8
			c0,21.3-12.2,35.4-37,35.4c-24.9,0-37.1-14.3-37.1-35.3V628z"/>
		<path class="st0" d="M1454.7,648.8l-26.3,64.9h-6.4l-26.2-64.9v64.9h-15V628h21.2l23.2,57.7l23.4-57.7h21.2v85.7h-15V648.8z"/>
	</g>
	<g>
		
			<rect x="506.5" y="439.5" transform="matrix(0.8388 -0.5445 0.5445 0.8388 -175.5696 356.402)" class="st0" width="15" height="70.2"/>
		
			<rect x="637.5" y="486.7" transform="matrix(0.8388 -0.5445 0.5445 0.8388 -160.6423 445.9261)" class="st0" width="70.2" height="15"/>
		
			<rect x="625.1" y="393.2" transform="matrix(0.259 -0.9659 0.9659 0.259 102.2199 934.575)" class="st0" width="70.2" height="15"/>
		
			<rect x="479.7" y="516.2" transform="matrix(0.259 -0.9659 0.9659 0.259 -171.4678 879.0703)" class="st0" width="15" height="70.2"/>
		
			<rect x="586.1" y="480.4" transform="matrix(0.9902 -0.1393 0.1393 0.9902 -66.0333 87.7327)" class="st0" width="15" height="70.2"/>
		
			<rect x="711.8" y="609.3" transform="matrix(0.8388 -0.5445 0.5445 0.8388 -234.8935 495.5875)" class="st0" width="15" height="70.2"/>
		
			<rect x="525.6" y="617.3" transform="matrix(0.8388 -0.5445 0.5445 0.8388 -249.8208 406.0633)" class="st0" width="70.2" height="15"/>
		
			<rect x="550.6" y="671.1" transform="matrix(0.259 -0.9659 0.9659 0.259 -221.4244 1068.5922)" class="st0" width="70.2" height="15"/>
		<rect x="711" y="564.7" class="st0" width="70.2" height="15"/>
		
			<rect x="632.2" y="568.4" transform="matrix(0.9902 -0.1393 0.1393 0.9902 -77.8526 95.0195)" class="st0" width="15" height="70.2"/>
	</g>
</g>
</svg>
